<svg id="Capa_1" enable-background="new 0 0 496.321 496.321" height="512" viewBox="0 0 496.321 496.321" width="512" xmlns="http://www.w3.org/2000/svg"><g><g><path d="m222.111 301.667c12.181 7.438 26.202 11.419 40.837 11.419 20.989 0 40.722-8.174 55.563-23.016l119.794-119.793c14.842-14.842 23.016-34.574 23.016-55.563 0-20.99-8.174-40.723-23.017-55.564-14.871-14.871-34.651-23.047-55.686-23.016-21.102.032-41.25 8.824-56.172 23.746l-37.319 37.32c-4.936 4.936-12.935 4.943-17.88.017l-6.865-6.838c-4.959-4.939-4.966-12.966-.017-17.915l38.064-38.064c44.355-44.355 116.27-44.355 160.625 0 44.355 44.355 44.355 116.27 0 160.625l-119.793 119.794c-39.872 39.872-102.007 43.891-146.381 12.078l-28.615-26.061-8.081-7.848c-6.917-6.718-7.214-17.726-.671-24.808 6.847-7.411 18.483-7.641 25.618-.506l8.148 8.147z" fill="#5f99d7"/></g><g><path d="m303.16 220.618 8.029 8.029c7.135 7.135 18.771 6.905 25.618-.506 6.543-7.082 6.246-18.09-.671-24.808l-7.96-7.731-28.596-26.08c-44.382-31.92-106.606-27.934-146.52 11.98l-119.793 119.793c-44.355 44.355-44.355 116.27 0 160.625 44.355 44.355 116.27 44.355 160.625 0l38.064-38.064c4.949-4.949 4.941-12.975-.017-17.915l-6.865-6.838c-4.945-4.926-12.945-4.918-17.88.018l-37.321 37.32c-14.922 14.922-35.07 23.714-56.172 23.746-21.035.032-40.815-8.145-55.686-23.016-14.842-14.84-23.015-34.573-23.015-55.563 0-20.989 8.174-40.722 23.016-55.563l119.794-119.793c14.842-14.842 34.574-23.016 55.563-23.016 14.695 0 28.772 4.01 40.987 11.506z" fill="#5f99d7"/></g><path d="m214.718 337.345 27.12-27.12c-6.94-1.925-13.569-4.798-19.727-8.559l-28.831-25.845-8.148-8.147c-2.176-2.176-4.772-3.658-7.522-4.469l-22.073 22.073c.836 2.837 2.378 5.506 4.647 7.709l8.081 7.848 28.615 26.061c5.682 4.074 11.658 7.551 17.838 10.449z" fill="#3c87d0"/><path d="m336.136 203.333-7.96-7.731-28.596-26.08c-5.673-4.08-11.641-7.565-17.813-10.472l-27.095 27.095c6.928 1.94 13.544 4.826 19.688 8.597l28.8 25.876 8.029 8.029c2.223 2.223 4.883 3.73 7.699 4.528l21.946-21.945c-.823-2.907-2.38-5.645-4.698-7.897z" fill="#3c87d0"/><path d="m331.027 192.751-138.247 138.247c-7.549 7.549-19.789 7.549-27.338 0-7.549-7.549-7.549-19.789 0-27.338l138.247-138.247c7.549-7.549 19.789-7.549 27.338 0 7.549 7.549 7.549 19.789 0 27.338z" fill="#5f99d7"/><g><g><path d="m50.993 248.649c-.09 0-.179-.002-.269-.005-4.14-.146-7.377-3.619-7.231-7.759 3.805-108.212 91.591-194.966 199.853-197.504 3.042-.052 5.862 1.728 7.068 4.542 1.208 2.816.581 6.083-1.582 8.252l-.372.373c-2.003 2.009-4.856 2.643-7.399 1.909-99.115 3.687-179.082 83.552-182.577 182.955-.144 4.05-3.472 7.237-7.491 7.237z" fill="#99e6fc"/></g><g><path d="m252.702 453.034c-4.065 0-7.404-3.249-7.495-7.333-.092-4.142 3.19-7.573 7.331-7.665 100.584-2.235 182.046-82.738 185.456-183.273.138-4.054 3.467-7.246 7.491-7.246.086 0 .173.001.259.004 4.141.141 7.382 3.61 7.242 7.75-3.681 108.482-91.581 195.35-200.114 197.762-.057 0-.115.001-.17.001z" fill="#99e6fc"/></g></g></g></svg>