<svg height="512" viewBox="0 0 64 64" width="512" xmlns="http://www.w3.org/2000/svg"><g id="newspaper-newspapers-read-man-paper"><path d="m20.5 42.424h2v13.153h-2z" transform="matrix(.152 -.988 .988 .152 -30.199 62.799)"/><path d="m20.5 36.424h2v13.153h-2z" transform="matrix(.152 -.988 .988 .152 -24.269 57.712)"/><path d="m20.5 47.424h2v13.153h-2z" transform="matrix(.152 -.988 .988 .152 -35.141 67.039)"/><path d="m35.924 48h13.153v2h-13.153z" transform="matrix(.988 -.152 .152 .988 -6.969 7.047)"/><path d="m35.924 42h13.153v2h-13.153z" transform="matrix(.988 -.152 .152 .988 -6.055 6.977)"/><path d="m35.924 53h13.153v2h-13.153z" transform="matrix(.988 -.152 .152 .988 -7.731 7.105)"/><path d="m59 42h-1v-7a1.011 1.011 0 0 0 -.35-.76.992.992 0 0 0 -.81-.23l-7.84 1.26v-.27a3.009 3.009 0 0 0 -3-3h-10v-2.76a11.025 11.025 0 0 0 7-10.24v-1h1a1 1 0 0 0 1-1v-2a13 13 0 0 0 -26 0v2a1 1 0 0 0 1 1h1v1a11.025 11.025 0 0 0 7 10.24v2.76h-10a3.009 3.009 0 0 0 -3 3v.27l-7.84-1.26a.992.992 0 0 0 -.81.23 1.011 1.011 0 0 0 -.35.76v7h-1a3.009 3.009 0 0 0 -3 3v4a3.009 3.009 0 0 0 3 3h1v5a1.008 1.008 0 0 0 .84.99l25 4a1.285 1.285 0 0 0 .32 0l25-4a1.008 1.008 0 0 0 .84-.99v-5h1a3.009 3.009 0 0 0 3-3v-4a3.009 3.009 0 0 0 -3-3zm-38-26v-1a11 11 0 0 1 22 0v1h-.7l-5.75-3.83a.963.963 0 0 0 -1.1 0l-5.06 3.37-1.5-2.99a1.024 1.024 0 0 0 -.63-.52 1 1 0 0 0 -.81.14l-5.75 3.83zm2 3v-1.46l4.61-3.08 1.5 2.99a1.024 1.024 0 0 0 .63.52 1.153 1.153 0 0 0 .26.03.967.967 0 0 0 .55-.17l5.45-3.63 5 3.34v1.46a9 9 0 0 1 -18 0zm11 10.81v2.19h-4v-2.19a10.621 10.621 0 0 0 4 0zm-29 20.19a1 1 0 0 1 -1-1v-4a1 1 0 0 1 1-1h4a1 1 0 0 1 1 1v4a1 1 0 0 1 -1 1zm26 9.83-23-3.68v-4.15h1a3.009 3.009 0 0 0 3-3v-4a3.009 3.009 0 0 0 -3-3h-1v-5.83l23 3.68zm1-21.84-15-2.4v-.59a1 1 0 0 1 1-1h28a1 1 0 0 1 1 1v.59zm24 18.16-23 3.68v-19.98l23-3.68v5.83h-1a3.009 3.009 0 0 0 -3 3v4a3.009 3.009 0 0 0 3 3h1zm4-7.15a1 1 0 0 1 -1 1h-4a1 1 0 0 1 -1-1v-4a1 1 0 0 1 1-1h4a1 1 0 0 1 1 1z"/></g></svg>